<?xml version="1.0" encoding="UTF-8" standalone="no"?>
<!-- Created with Inkscape (http://www.inkscape.org/) -->

<svg
   width="46.415932mm"
   height="49.072594mm"
   viewBox="0 0 46.415932 49.072594"
   version="1.1"
   id="svg5"
   xml:space="preserve"
   xmlns:inkscape="http://www.inkscape.org/namespaces/inkscape"
   xmlns:sodipodi="http://sodipodi.sourceforge.net/DTD/sodipodi-0.dtd"
   xmlns:xlink="http://www.w3.org/1999/xlink"
   xmlns="http://www.w3.org/2000/svg"
   xmlns:svg="http://www.w3.org/2000/svg"><sodipodi:namedview
     id="namedview7"
     pagecolor="#505050"
     bordercolor="#eeeeee"
     borderopacity="1"
     inkscape:showpageshadow="0"
     inkscape:pageopacity="0"
     inkscape:pagecheckerboard="0"
     inkscape:deskcolor="#505050"
     inkscape:document-units="mm"
     showgrid="false" /><defs
     id="defs2"><linearGradient
       inkscape:collect="always"
       id="linearGradient32674"><stop
         style="stop-color:#eeea24;stop-opacity:1;"
         offset="0"
         id="stop32670" /><stop
         style="stop-color:#aaaa0a;stop-opacity:1;"
         offset="1"
         id="stop32672" /></linearGradient><inkscape:path-effect
       effect="simplify"
       id="path-effect30404"
       is_visible="true"
       lpeversion="1"
       steps="1"
       threshold="0.0080531"
       smooth_angles="360"
       helper_size="0"
       simplify_individual_paths="false"
       simplify_just_coalesce="false" /><linearGradient
       inkscape:collect="always"
       xlink:href="#linearGradient32674"
       id="linearGradient32676"
       x1="108.0921"
       y1="31.545877"
       x2="119.18166"
       y2="31.545877"
       gradientUnits="userSpaceOnUse" /><linearGradient
       inkscape:collect="always"
       xlink:href="#linearGradient32674"
       id="linearGradient32688"
       gradientUnits="userSpaceOnUse"
       x1="108.0921"
       y1="31.545877"
       x2="119.18166"
       y2="31.545877" /><linearGradient
       inkscape:collect="always"
       xlink:href="#linearGradient32674"
       id="linearGradient32696"
       gradientUnits="userSpaceOnUse"
       x1="108.0921"
       y1="31.545877"
       x2="119.18166"
       y2="31.545877" /></defs><g
     inkscape:label="Layer 1"
     inkscape:groupmode="layer"
     id="layer1"
     transform="translate(-106.2911,-26.337583)"><rect
       style="fill:#c4c4c4;fill-opacity:1;fill-rule:nonzero;stroke:none;stroke-width:15.409;stroke-linecap:round;stroke-dasharray:none;stroke-opacity:1;paint-order:stroke fill markers"
       id="rect24170-1"
       width="46.415932"
       height="43.864063"
       x="106.2911"
       y="31.546108"
       ry="2.3421683"
       inkscape:export-filename="GNOTES-Logo.png"
       inkscape:export-xdpi="96"
       inkscape:export-ydpi="96" /><rect
       style="fill:#f6f6f6;fill-opacity:1;fill-rule:nonzero;stroke:none;stroke-width:14.961;stroke-linecap:round;stroke-dasharray:none;stroke-opacity:1;paint-order:stroke fill markers"
       id="rect24170-1-7"
       width="46.415932"
       height="41.350521"
       x="106.2911"
       y="31.546108"
       ry="2.2079551" /><path
       id="rect25301"
       style="opacity:1;fill:#464646;fill-opacity:1;fill-rule:nonzero;stroke:none;stroke-width:2.2514;stroke-dasharray:none;stroke-opacity:1;paint-order:stroke fill markers"
       d="m 108.21458,31.545878 c -1.06567,0 -1.92339,0.858245 -1.92339,1.923914 v 6.84351 -1.923396 1.923396 h 1.92339 42.56898 1.9234 v -1.923396 1.923396 -6.84351 c 0,-1.065669 -0.85773,-1.923914 -1.9234,-1.923914 z"
       sodipodi:nodetypes="ssccccccccsss" /><rect
       style="opacity:1;fill:#c4c4c4;fill-opacity:1;fill-rule:nonzero;stroke:none;stroke-width:1.61214;stroke-dasharray:none;stroke-opacity:1;paint-order:stroke fill markers"
       id="rect25618"
       width="46.415771"
       height="0.65527648"
       x="106.29118"
       y="40.313301"
       ry="0" /><rect
       style="opacity:1;fill:#b6b6b6;fill-opacity:1;fill-rule:nonzero;stroke:none;stroke-width:2.70822;stroke-dasharray:none;stroke-opacity:1;paint-order:stroke fill markers"
       id="rect28620"
       width="12.376229"
       height="11.645588"
       x="106.2911"
       y="61.251041"
       ry="2.2489583" /><path
       style="opacity:1;fill:#b6b6b6;fill-opacity:1;fill-rule:nonzero;stroke:none;stroke-width:2.762;stroke-dasharray:none;stroke-opacity:1;paint-order:stroke fill markers"
       d="m 112.47921,61.251041 h -6.18811 v 5.822794 l 6.18811,5.822794 h 6.18812 v -5.822794 z"
       id="path29488" /><path
       style="opacity:1;fill:#c4c4c4;fill-opacity:1;fill-rule:nonzero;stroke:none;stroke-width:2.76201;stroke-dasharray:none;stroke-opacity:1;paint-order:stroke fill markers"
       d="m 106.2911,61.251041 c 4.12541,3.881863 8.25082,7.763725 12.37623,11.645588"
       id="path30402"
       inkscape:path-effect="#path-effect30404"
       inkscape:original-d="m 106.2911,61.251041 12.37623,11.645588" /><path
       style="opacity:1;fill:#ffffff;fill-opacity:1;fill-rule:nonzero;stroke:none;stroke-width:2.76201;stroke-dasharray:none;stroke-opacity:1;paint-order:stroke fill markers"
       d="m 106.2911,61.251041 12.37623,11.645588 v -9.528921 c 0,0 -0.134,-2.116667 -2.25066,-2.116667 -2.11667,0 -10.12557,0 -10.12557,0 z"
       id="path30460" /><g
       id="g32680"><path
         style="color:#000000;fill:url(#linearGradient32676);fill-opacity:1;stroke-linecap:round;paint-order:stroke fill markers"
         d="m 113.63898,26.337582 c -3.04783,-3e-6 -5.54688,2.50101 -5.54688,5.548828 0.001,1.872663 0.95115,3.622706 2.51953,4.644531 a 1.381,1.381 0 0 0 1.91016,-0.404296 1.381,1.381 0 0 0 -0.4043,-1.910157 c -0.78996,-0.514672 -1.263,-1.389993 -1.26367,-2.332031 0.001,-1.554195 1.23068,-2.785157 2.78516,-2.785156 1.49926,2.28e-4 2.70938,1.150985 2.7832,2.648437 a 1.381,1.381 0 0 0 1.44726,1.3125 1.381,1.381 0 0 0 1.31055,-1.447265 c -0.14493,-2.940118 -2.59733,-5.274943 -5.54101,-5.275391 z"
         id="path32515" /><rect
         style="fill:#464646;fill-opacity:1;fill-rule:nonzero;stroke:none;stroke-width:6.51243;stroke-linecap:round;stroke-dasharray:none;stroke-opacity:1;paint-order:stroke fill markers"
         id="rect32577"
         width="5.8279395"
         height="2.5042586"
         x="114.87804"
         y="31.545784" /></g><g
       id="g32686"
       transform="translate(9.0619792)"><path
         style="color:#000000;fill:url(#linearGradient32688);fill-opacity:1;stroke-linecap:round;paint-order:stroke fill markers"
         d="m 113.63898,26.337582 c -3.04783,-3e-6 -5.54688,2.50101 -5.54688,5.548828 0.001,1.872663 0.95115,3.622706 2.51953,4.644531 a 1.381,1.381 0 0 0 1.91016,-0.404296 1.381,1.381 0 0 0 -0.4043,-1.910157 c -0.78996,-0.514672 -1.263,-1.389993 -1.26367,-2.332031 0.001,-1.554195 1.23068,-2.785157 2.78516,-2.785156 1.49926,2.28e-4 2.70938,1.150985 2.7832,2.648437 a 1.381,1.381 0 0 0 1.44726,1.3125 1.381,1.381 0 0 0 1.31055,-1.447265 c -0.14493,-2.940118 -2.59733,-5.274943 -5.54101,-5.275391 z"
         id="path32682" /><rect
         style="fill:#464646;fill-opacity:1;fill-rule:nonzero;stroke:none;stroke-width:6.51243;stroke-linecap:round;stroke-dasharray:none;stroke-opacity:1;paint-order:stroke fill markers"
         id="rect32684"
         width="5.8279395"
         height="2.5042586"
         x="114.87804"
         y="31.545784" /></g><g
       id="g32694"
       transform="translate(18.454688)"><path
         style="color:#000000;fill:url(#linearGradient32696);fill-opacity:1;stroke-linecap:round;paint-order:stroke fill markers"
         d="m 113.63898,26.337582 c -3.04783,-3e-6 -5.54688,2.50101 -5.54688,5.548828 0.001,1.872663 0.95115,3.622706 2.51953,4.644531 a 1.381,1.381 0 0 0 1.91016,-0.404296 1.381,1.381 0 0 0 -0.4043,-1.910157 c -0.78996,-0.514672 -1.263,-1.389993 -1.26367,-2.332031 0.001,-1.554195 1.23068,-2.785157 2.78516,-2.785156 1.49926,2.28e-4 2.70938,1.150985 2.7832,2.648437 a 1.381,1.381 0 0 0 1.44726,1.3125 1.381,1.381 0 0 0 1.31055,-1.447265 c -0.14493,-2.940118 -2.59733,-5.274943 -5.54101,-5.275391 z"
         id="path32690" /><rect
         style="fill:#464646;fill-opacity:1;fill-rule:nonzero;stroke:none;stroke-width:6.51243;stroke-linecap:round;stroke-dasharray:none;stroke-opacity:1;paint-order:stroke fill markers"
         id="rect32692"
         width="5.8279395"
         height="2.5042586"
         x="114.87804"
         y="31.545784" /></g><rect
       style="opacity:1;fill:#c4c4c4;fill-opacity:1;fill-rule:nonzero;stroke:none;stroke-width:2.76201;stroke-linecap:round;stroke-dasharray:none;stroke-opacity:1;paint-order:stroke fill markers"
       id="rect32750"
       width="21.960417"
       height="4.3656249"
       x="126.60313"
       y="44.714584"
       ry="2.1828125" /><rect
       style="opacity:1;fill:#c4c4c4;fill-opacity:1;fill-rule:nonzero;stroke:none;stroke-width:2.16507;stroke-linecap:round;stroke-dasharray:none;stroke-opacity:1;paint-order:stroke fill markers"
       id="rect32752"
       width="13.493751"
       height="4.3656249"
       x="110.33125"
       y="44.714584"
       ry="2.1828125" /><rect
       style="opacity:1;fill:#c4c4c4;fill-opacity:1;fill-rule:nonzero;stroke:none;stroke-width:2.57249;stroke-linecap:round;stroke-dasharray:none;stroke-opacity:1;paint-order:stroke fill markers"
       id="rect32756"
       width="19.050001"
       height="4.3656249"
       x="110.33125"
       y="51.196877"
       ry="2.1828125" /></g></svg>
